<svg xmlns="http://www.w3.org/2000/svg" version="1.1" xmlns:xlink="http://www.w3.org/1999/xlink" xmlns:svgjs="http://svgjs.dev/svgjs" width="1000" height="1000" viewBox="0 0 1000 1000"><rect width="1000" height="1000" fill="#ffffff"></rect><g transform="matrix(0.7,0,0,0.7,149.57575757575756,282.1265587044535)"><svg viewBox="0 0 396 247" data-background-color="#ffffff" preserveAspectRatio="xMidYMid meet" height="623" width="1000" xmlns="http://www.w3.org/2000/svg" xmlns:xlink="http://www.w3.org/1999/xlink"><g id="tight-bounds" transform="matrix(1,0,0,1,0.2400000000000091,-0.09999999999999432)"><svg viewBox="0 0 395.52 247.2" height="247.2" width="395.52"><g><svg></svg></g><g><svg viewBox="0 0 395.52 247.2" height="247.2" width="395.52"><mask id="7bf6837d-6dc8-4e6f-81c7-9345a8ee309e"><rect width="640" height="400" fill="white"></rect><rect width="348.05760000000004" height="57.520816856780904" fill="black" y="94.83959157160955" x="23.731199999999973" id="transform-me"></rect></mask><g transform="matrix(1,0,0,1,39.55199999999999,101.22279214921382)"><svg viewBox="0 0 316.416 44.75441570157236" height="44.75441570157236" width="316.416"><g><svg viewBox="0 0 317.99807999999996 44.97818778008022" height="44.75441570157236" width="316.416"><g><svg viewBox="0 0 317.99807999999996 44.97818778008022" height="44.97818778008022" width="317.99807999999996"><g id="textblocktransform"><svg viewBox="0 0 317.99807999999996 44.97818778008022" height="44.97818778008022" width="317.99807999999996" id="textblock"><g><rect width="317.99807999999996" height="2.450574533748055" x="0" y="30.06074890428347" fill="#8d021f" opacity="1" stroke-width="0" stroke="transparent" fill-opacity="1" class="rect-o-0" data-fill-palette-color="primary" rx="1%" id="o-0" data-palette-color="#8d021f"></rect></g><g transform="matrix(1,0,0,1,0.7910399999999811,0)"><svg viewBox="0 0 316.416 27.17394644306194" height="27.17394644306194" width="316.416"><g transform="matrix(1,0,0,1,0,0)"><svg width="316.416" viewBox="2 -26.149999618530273 369.67999267578125 31.75" height="27.17394644306194" data-palette-color="#8d021f"><path d="M13.7-3.85Q16.05-3.3 18.2-3.3 20.35-3.3 21.63-4.28 22.9-5.25 23.5-7.65L23.5-7.65 29.5-7.45Q28.75-2.95 27.5 0L27.5 0 2.95 0Q2-6.4 2-13.25 2-20.1 2.7-25L2.7-25 17.1-25Q13.8-12.35 13.7-3.85L13.7-3.85ZM50.85-14.95L50.85-14.95 55.55-14.65Q56.25-14.65 56.6-14.7L56.6-14.7 54.25-10.3 53.8-10.3Q52.85-10.3 51.1-10.83 49.35-11.35 48.6-11.35L48.6-11.35Q46.55-11.35 45.35-8.7L45.35-8.7Q45.15-6.25 45.05-3.8L45.05-3.8Q47.65-3.3 49.15-3.3L49.15-3.3 49.6-3.3Q51.75-3.3 53.02-4.25 54.3-5.2 54.85-7.65L54.85-7.65 60.85-7.4Q60.1-3.1 58.85 0L58.85 0 34.3 0Q33.3-6.75 33.3-13.4 33.3-20.05 34-25L34-25 60.8-25Q59.9-19.6 59.2-17.4L59.2-17.4Q56.25-17.25 53.8-17.2L53.8-17.2Q54.2-18.35 54.2-19.35L54.2-19.35Q54.2-21.75 50.6-21.75L50.6-21.75Q49.25-21.75 47.6-21.45L47.6-21.45Q46.5-16.7 45.9-13.1L45.9-13.1Q47.9-14.95 50.85-14.95ZM98.15-0.4L98.15-0.4 98.15 0 86.55 0Q86.35-2.75 85.7-5.9L85.7-5.9Q82.2-2.4 78.7 0L78.7 0 67.05 0Q66.7-2.05 66.7-5.43 66.7-8.8 67.7-12.2L67.7-12.2Q71.3-13.25 74.62-15.75 77.95-18.25 79.45-21.15L79.45-21.15Q78.05-23.35 76.6-25L76.6-25 93.2-25Q98.15-14.15 98.15-0.4ZM84.8-9.55L84.8-9.55Q83.55-13.85 81.4-17.95L81.4-17.95Q79.05-11.05 78.7-4.9L78.7-4.9Q82.4-6.9 84.8-9.55ZM130.14-16.3L130.14-16.3 130.09-14.6Q126.09-12.45 120.09-11.25L120.09-11.25Q124.39-10.1 128.39-10.1L128.39-10.1 129.44-10.1Q132.19-6.05 132.99 0L132.99 0 120.04 0Q119.54-3.5 118.02-6.03 116.49-8.55 114.29-9.45L114.29-9.45Q114.24-8.6 114.24-6.05 114.24-3.5 114.54 0L114.54 0 103.64 0Q102.19-7.25 102.19-13.48 102.19-19.7 102.89-25L102.89-25 128.99-25Q130.14-19.95 130.14-16.3ZM115.34-21.65L115.34-21.65Q114.74-17.25 114.44-13L114.44-13Q117.19-13.4 118.94-14.95L118.94-14.95Q117.99-18.3 115.34-21.65ZM160.69-25L166.64-25Q166.94-19.75 166.94-13.93 166.94-8.1 166.44 0L166.44 0 161.64 0Q151.94-5.2 143.84-14.15L143.84-14.15Q144.24-10.8 144.24-7.28 144.24-3.75 143.99 0L143.99 0 138.14 0Q139.14-6.15 139.14-11.38 139.14-16.6 138.64-19.65L138.64-19.65Q136.64-22.65 135.49-25L135.49-25 149.69-25Q151.79-21.4 155.42-17.57 159.04-13.75 162.34-11.6L162.34-11.6Q162.34-18.9 160.69-25L160.69-25ZM191.24-22L191.24-22Q189.24-22.3 186.96-22.3 184.69-22.3 182.54-22L182.54-22Q183.89-19.7 185.74-18.25 187.59-16.8 190.41-15.38 193.24-13.95 195.01-12.75 196.79-11.55 198.94-8.8 201.09-6.05 201.64-3.05L201.64-3.05Q199.24 0.05 195.29 2.43 191.34 4.8 187.19 5.6L187.19 5.6Q184.39 5.35 180.11 4.03 175.84 2.7 173.69 2.7 171.54 2.7 169.39 4.05L169.39 4.05Q170.29 1.5 172.34-2.35L172.34-2.35 172.74-2.35Q175.94-2.35 178.76-1.35 181.59-0.35 183.91 0.65 186.24 1.65 187.66 1.65 189.09 1.65 189.74 1.45L189.74 1.45Q189.74-1.85 187.69-4L187.69-4Q186.59-5.15 185.81-5.78 185.04-6.4 183.44-7.5L183.44-7.5 182.59-8.1Q179.19-10.45 176.99-12.88 174.79-15.3 173.79-18.85L173.79-18.85Q175.39-22.4 176.94-25L176.94-25Q181.69-26.15 186.79-26.15L186.79-26.15 188.99-26.15Q193.29-26.15 198.84-24.95L198.84-24.95Q198.04-21.65 196.89-19L196.89-19Q192.69-18.7 190.39-18.7L190.39-18.7Q190.84-19.85 191.24-22ZM216.54-7.25L216.54-6.25Q216.54-3.4 216.79 0L216.79 0 205.79 0Q203.74-7.95 203.74-16.9L203.74-16.9Q203.74-21.45 204.29-25L204.29-25 231.39-25Q232.84-19.35 232.99-11.55L232.99-11.55Q225.59-8.25 216.54-7.25L216.54-7.25ZM216.59-10.7L216.59-10.7Q219.79-11.1 221.94-12.3L221.94-12.3Q221.14-17.6 217.64-21.7L217.64-21.7Q216.84-16.75 216.59-10.7ZM270.03-20.85L270.03-20.85Q270.03-11.05 268.13 0L268.13 0 256.18 0Q256.98-5.9 257.23-12.7L257.23-12.7Q254.63-14.3 251.43-14.65L251.43-14.65Q251.13-7.3 249.83 0L249.83 0 238.48 0Q239.13-4.9 239.13-11.73 239.13-18.55 238.23-25L238.23-25 251.43-25Q251.53-22.95 251.53-18.9L251.53-18.9Q254.43-18 257.28-16.45L257.28-16.45Q257.28-21.1 256.93-25L256.93-25 269.93-25Q270.03-22.2 270.03-20.85ZM292.83-14.95L292.83-14.95 297.53-14.65Q298.23-14.65 298.58-14.7L298.58-14.7 296.23-10.3 295.78-10.3Q294.83-10.3 293.08-10.83 291.33-11.35 290.58-11.35L290.58-11.35Q288.53-11.35 287.33-8.7L287.33-8.7Q287.13-6.25 287.03-3.8L287.03-3.8Q289.63-3.3 291.13-3.3L291.13-3.3 291.58-3.3Q293.73-3.3 295.01-4.25 296.28-5.2 296.83-7.65L296.83-7.65 302.83-7.4Q302.08-3.1 300.83 0L300.83 0 276.28 0Q275.28-6.75 275.28-13.4 275.28-20.05 275.98-25L275.98-25 302.78-25Q301.88-19.6 301.18-17.4L301.18-17.4Q298.23-17.25 295.78-17.2L295.78-17.2Q296.18-18.35 296.18-19.35L296.18-19.35Q296.18-21.75 292.58-21.75L292.58-21.75Q291.23-21.75 289.58-21.45L289.58-21.45Q288.48-16.7 287.88-13.1L287.88-13.1Q289.88-14.95 292.83-14.95ZM336.73-16.3L336.73-16.3 336.68-14.6Q332.68-12.45 326.68-11.25L326.68-11.25Q330.98-10.1 334.98-10.1L334.98-10.1 336.03-10.1Q338.78-6.05 339.58 0L339.58 0 326.63 0Q326.13-3.5 324.6-6.03 323.08-8.55 320.88-9.45L320.88-9.45Q320.83-8.6 320.83-6.05 320.83-3.5 321.13 0L321.13 0 310.23 0Q308.78-7.25 308.78-13.48 308.78-19.7 309.48-25L309.48-25 335.58-25Q336.73-19.95 336.73-16.3ZM321.93-21.65L321.93-21.65Q321.33-17.25 321.03-13L321.03-13Q323.78-13.4 325.53-14.95L325.53-14.95Q324.58-18.3 321.93-21.65ZM361.68-14.95L361.68-14.95 366.38-14.65Q367.08-14.65 367.43-14.7L367.43-14.7 365.08-10.3 364.63-10.3Q363.68-10.3 361.93-10.83 360.18-11.35 359.43-11.35L359.43-11.35Q357.38-11.35 356.18-8.7L356.18-8.7Q355.98-6.25 355.88-3.8L355.88-3.8Q358.48-3.3 359.98-3.3L359.98-3.3 360.43-3.3Q362.58-3.3 363.85-4.25 365.13-5.2 365.68-7.65L365.68-7.65 371.68-7.4Q370.93-3.1 369.68 0L369.68 0 345.13 0Q344.13-6.75 344.13-13.4 344.13-20.05 344.83-25L344.83-25 371.63-25Q370.73-19.6 370.03-17.4L370.03-17.4Q367.08-17.25 364.63-17.2L364.63-17.2Q365.03-18.35 365.03-19.35L365.03-19.35Q365.03-21.75 361.43-21.75L361.43-21.75Q360.08-21.75 358.43-21.45L358.43-21.45Q357.33-16.7 356.73-13.1L356.73-13.1Q358.73-14.95 361.68-14.95Z" opacity="1" transform="matrix(1,0,0,1,0,0)" fill="#8d021f" class="wordmark-text-0" data-fill-palette-color="primary" id="text-0"></path></svg></g></svg></g><g transform="matrix(1,0,0,1,0,35.39812589925305)"><svg viewBox="0 0 185.7678336 9.580061880827163" height="9.580061880827163" width="185.7678336"><g transform="matrix(1,0,0,1,0,0)"><svg width="185.7678336" viewBox="2 -38.099998474121094 979.1500244140625 50.5" height="9.580061880827163" data-palette-color="#8d021f"><path d="M30.5-6.9L28.8 0 2 0 2-1.5 3.7-1.5Q5.2-1.5 5.65-2.05 6.1-2.6 6.1-3.7L6.1-3.7 6.1-31.3Q6.1-32.4 5.65-32.95 5.2-33.5 3.7-33.5L3.7-33.5 2-33.5 2-35 14.7-35 14.7-33.5 12.8-33.5Q11.3-33.5 10.85-32.95 10.4-32.4 10.4-31.3L10.4-31.3 10.4-4.4Q10.4-3.3 10.85-2.7 11.3-2.1 12.8-2.1L12.8-2.1 22.3-2.1Q24.95-2.1 26.98-3.83 29-5.55 29-7.2L29-7.2 30.5-6.9ZM52.5-6.1L52.5-6.1 53.4-5.2Q50.2 0.7 41.9 0.7L41.9 0.7Q38.05 0.7 35.32-2.7 32.6-6.1 32.6-10.3L32.6-10.3Q32.6-15.95 36.27-19.98 39.95-24 45.2-24L45.2-24Q47.7-24 49.6-22.55L49.6-22.55Q53-19.9 53-15.7L53-15.7Q53-15.1 52.77-14.25 52.55-13.4 52.4-13.4L52.4-13.4 36.3-12.9Q36.3-9 38.75-5.7 41.2-2.4 44.7-2.4L44.7-2.4Q47.2-2.4 49.32-3.43 51.45-4.45 52.5-6.1ZM36.8-14.9L36.8-14.9 48.5-15.4Q48.6-15.4 48.6-16.3L48.6-16.3Q48.6-18.9 47.07-20 45.55-21.1 42.87-21.1 40.2-21.1 38.5-19.45 36.8-17.8 36.8-14.9ZM79.09-1.4L79.09 0 71.9 0 71.9-4Q69.4-1.3 67.75-0.3 66.09 0.7 63.27 0.7 60.45 0.7 58.87-0.63 57.3-1.95 57.3-4.35 57.3-6.75 59.37-9.03 61.45-11.3 64.22-12.48 67-13.65 69.09-14.28 71.2-14.9 71.9-14.9L71.9-14.9 71.9-16Q71.9-20.7 68-20.7L68-20.7Q65.3-20.7 62.97-19.55 60.65-18.4 59.5-16.6L59.5-16.6 58.5-17.5Q61.84-24 70.09-24L70.09-24Q72.2-24 73.57-22.88 74.95-21.75 75.42-20.25 75.9-18.75 75.9-16.9L75.9-16.9 75.9-3.4Q75.9-2.75 76-2.4 76.09-2.05 76.62-1.73 77.15-1.4 78.2-1.4L78.2-1.4 79.09-1.4ZM71.9-6.8L71.9-6.8 71.9-12.9Q68-12.15 64.64-9.9 61.3-7.65 61.3-5L61.3-5Q61.3-3.95 62.32-3.18 63.34-2.4 64.87-2.4 66.4-2.4 68.5-3.78 70.59-5.15 71.9-6.8ZM93.79-1.4L93.79 0 82.99 0 82.99-1.4 83.79-1.4Q85.14-1.4 85.52-1.85 85.89-2.3 85.89-3.3L85.89-3.3 85.89-18.3Q85.89-19.25 85.27-19.68 84.64-20.1 82.99-20.1L82.99-20.1 82.99-21.5Q83.99-21.5 86.02-22.23 88.04-22.95 89.09-23.6L89.09-23.6 89.99-23.8 89.99-17.6Q91.79-21.55 94.09-22.83 96.39-24.1 100.89-24.1L100.89-24.1 100.59-18.3 99.09-18.3Q99.09-19 98.57-19.65 98.04-20.3 96.89-20.3L96.89-20.3Q94.39-20.3 92.19-17.6 89.99-14.9 89.99-12.4L89.99-12.4 89.99-3.6Q89.99-2.8 90.07-2.45 90.14-2.1 90.64-1.75 91.14-1.4 92.19-1.4L92.19-1.4 93.79-1.4ZM128.79-1.4L128.79 0 120.19 0 120.19-1.4 120.39-1.4Q120.94-1.4 121.32-1.95 121.69-2.5 121.69-3.3L121.69-3.3 121.69-16Q121.69-18.25 120.62-19.43 119.54-20.6 117.59-20.6L117.59-20.6Q114.79-20.6 112.64-17.6 110.49-14.6 110.49-13.1L110.49-13.1 110.49-3.6Q110.49-2.8 110.57-2.45 110.64-2.1 111.14-1.75 111.64-1.4 112.69-1.4L112.69-1.4 113.59-1.4 113.59 0 103.49 0 103.49-1.4 104.29-1.4Q105.64-1.4 106.02-1.85 106.39-2.3 106.39-3.3L106.39-3.3 106.39-18.3Q106.39-19.25 105.77-19.68 105.14-20.1 103.49-20.1L103.49-20.1 103.49-21.5Q104.49-21.5 106.52-22.23 108.54-22.95 109.59-23.6L109.59-23.6 110.49-23.8 110.49-17.4Q111.64-20.55 114.04-22.28 116.44-24 119.89-24L119.89-24Q121.69-24 122.94-23.2 124.19-22.4 124.74-21.15L124.74-21.15Q125.69-19 125.69-16.9L125.69-16.9 125.69-3.4Q125.69-2.7 125.79-2.35L125.79-2.35Q126.04-1.4 127.89-1.4L127.89-1.4 128.79-1.4ZM166.64-1.4L166.64 0 153.84 0 153.84-1.4 155.44-1.4Q157.64-1.4 157.64-2.8L157.64-2.8Q157.64-3 157.14-4.5L157.14-4.5 153.74-13.4 141.14-13.4 137.84-4.9Q137.84-4.8 137.49-3.68 137.14-2.55 137.14-2.13 137.14-1.7 137.69-1.55 138.24-1.4 140.04-1.4L140.04-1.4 140.84-1.4 140.84 0 131.04 0 131.04-1.4 131.74-1.4Q133.39-1.4 134.14-1.98 134.89-2.55 135.44-3.9L135.44-3.9 146.44-32.6Q146.69-32.65 147.34-33.33 147.99-34 148.54-34.73 149.09-35.45 149.09-35.55 149.09-35.65 149.04-35.7L149.04-35.7 149.74-35.9 162.04-3.7Q162.59-2.55 163.16-1.98 163.74-1.4 164.84-1.4L164.84-1.4 166.64-1.4ZM141.94-15.5L152.84-15.5 147.44-29.8 141.94-15.5ZM194.64-1.4L194.64 0 186.04 0 186.04-1.4 186.24-1.4Q186.79-1.4 187.16-1.95 187.54-2.5 187.54-3.3L187.54-3.3 187.54-16Q187.54-18.25 186.46-19.43 185.39-20.6 183.44-20.6L183.44-20.6Q180.64-20.6 178.49-17.6 176.34-14.6 176.34-13.1L176.34-13.1 176.34-3.6Q176.34-2.8 176.41-2.45 176.49-2.1 176.99-1.75 177.49-1.4 178.54-1.4L178.54-1.4 179.44-1.4 179.44 0 169.34 0 169.34-1.4 170.14-1.4Q171.49-1.4 171.86-1.85 172.24-2.3 172.24-3.3L172.24-3.3 172.24-18.3Q172.24-19.25 171.61-19.68 170.99-20.1 169.34-20.1L169.34-20.1 169.34-21.5Q170.34-21.5 172.36-22.23 174.39-22.95 175.44-23.6L175.44-23.6 176.34-23.8 176.34-17.4Q177.49-20.55 179.89-22.28 182.29-24 185.74-24L185.74-24Q187.54-24 188.79-23.2 190.04-22.4 190.59-21.15L190.59-21.15Q191.54-19 191.54-16.9L191.54-16.9 191.54-3.4Q191.54-2.7 191.64-2.35L191.64-2.35Q191.89-1.4 193.74-1.4L193.74-1.4 194.64-1.4ZM195.73 11.6L195.73 11.6 196.53 7.7 197.23 7.7Q197.33 8.25 198.13 8.93 198.93 9.6 199.83 9.6L199.83 9.6Q202.93 9.6 204.23 7.5 205.53 5.4 206.93-0.1L206.93-0.1 199.33-19.8Q198.88-20.85 198.38-21.33 197.88-21.8 196.83-21.8L196.83-21.8 196.13-21.8 196.13-23.3 205.93-23.3 205.93-21.8 205.63-21.8Q203.53-21.8 203.53-20.6L203.53-20.6Q203.53-20.35 204.03-19L204.03-19 209.13-5.4 214.73-19.5Q215.33-20.7 215.33-21L215.33-21Q215.33-21.45 214.76-21.63 214.18-21.8 212.43-21.8L212.43-21.8 212.03-21.8 212.03-23.3 221.33-23.3 221.33-21.8 220.83-21.8Q219.13-21.8 218.48-21.3 217.83-20.8 217.33-19.4L217.33-19.4 207.23 5.9Q205.88 9.2 204.01 10.8 202.13 12.4 198.93 12.4L198.93 12.4Q197.73 12.4 195.73 11.6ZM237.73-3.1L237.73-3.1 238.13-1.9Q234.38 0.7 229.93 0.7L229.93 0.7Q228.33 0.7 227.18-0.45 226.03-1.6 226.03-3.5L226.03-3.5 226.03-21.2 223.13-21.2 223.13-23.3 224.23-23.3Q225.88-23.3 227.31-25.3 228.73-27.3 228.73-29L228.73-29 230.03-29 230.03-23.3 236.83-23.3 236.83-21.2 231.93-21.2Q230.03-21.2 230.03-19.4L230.03-19.4 230.03-5.1Q230.03-1.8 232.43-1.8L232.43-1.8Q235.13-1.8 237.73-3.1ZM265.63-1.4L265.63 0 256.93 0 256.93-1.4 257.23-1.4Q257.73-1.4 258.08-1.93 258.43-2.45 258.43-3.3L258.43-3.3 258.43-16Q258.43-20.6 254.43-20.6L254.43-20.6Q251.58-20.6 249.4-17.6 247.23-14.6 247.23-13.1L247.23-13.1 247.23-3.6Q247.23-2.85 247.33-2.45L247.33-2.45Q247.58-1.4 249.43-1.4L249.43-1.4 250.43-1.4 250.43 0 240.33 0 240.33-1.4 241.03-1.4Q242.38-1.4 242.8-1.88 243.23-2.35 243.23-3.3L243.23-3.3 243.23-33Q243.23-33.95 242.58-34.38 241.93-34.8 240.33-34.8L240.33-34.8 240.33-36.2Q241.38-36.2 243.43-36.75 245.48-37.3 246.33-37.9L246.33-37.9 247.23-38.1 247.23-17.4Q249.83-24 256.63-24L256.63-24Q258.43-24 259.7-23.2 260.98-22.4 261.53-21.15L261.53-21.15Q262.53-19.05 262.53-16.9L262.53-16.9 262.53-3.4Q262.53-2.7 262.63-2.35L262.63-2.35Q262.83-1.4 264.63-1.4L264.63-1.4 265.63-1.4ZM274.05-34.8Q275.18-34.8 275.8-34.05 276.43-33.3 276.43-32.13 276.43-30.95 275.48-30.18 274.53-29.4 273.4-29.4 272.28-29.4 271.65-30.15 271.03-30.9 271.03-32.02 271.03-33.15 271.98-33.98 272.93-34.8 274.05-34.8ZM279.53-1.4L279.53 0 269.43 0 269.43-1.4 270.23-1.4Q271.58-1.4 271.95-1.85 272.33-2.3 272.33-3.3L272.33-3.3 272.33-18.3Q272.33-19.25 271.7-19.68 271.08-20.1 269.43-20.1L269.43-20.1 269.43-21.5Q270.43-21.5 272.45-22.23 274.48-22.95 275.53-23.6L275.53-23.6 276.43-23.8 276.43-3.6Q276.43-2.8 276.5-2.45 276.58-2.1 277.08-1.75 277.58-1.4 278.63-1.4L278.63-1.4 279.53-1.4ZM308.82-1.4L308.82 0 300.22 0 300.22-1.4 300.42-1.4Q300.97-1.4 301.35-1.95 301.72-2.5 301.72-3.3L301.72-3.3 301.72-16Q301.72-18.25 300.65-19.43 299.57-20.6 297.62-20.6L297.62-20.6Q294.82-20.6 292.67-17.6 290.52-14.6 290.52-13.1L290.52-13.1 290.52-3.6Q290.52-2.8 290.6-2.45 290.67-2.1 291.17-1.75 291.67-1.4 292.72-1.4L292.72-1.4 293.62-1.4 293.62 0 283.52 0 283.52-1.4 284.32-1.4Q285.67-1.4 286.05-1.85 286.42-2.3 286.42-3.3L286.42-3.3 286.42-18.3Q286.42-19.25 285.8-19.68 285.17-20.1 283.52-20.1L283.52-20.1 283.52-21.5Q284.52-21.5 286.55-22.23 288.57-22.95 289.62-23.6L289.62-23.6 290.52-23.8 290.52-17.4Q291.67-20.55 294.07-22.28 296.47-24 299.92-24L299.92-24Q301.72-24 302.97-23.2 304.22-22.4 304.77-21.15L304.77-21.15Q305.72-19 305.72-16.9L305.72-16.9 305.72-3.4Q305.72-2.7 305.82-2.35L305.82-2.35Q306.07-1.4 307.92-1.4L307.92-1.4 308.82-1.4ZM319.57-2.6L319.57-2.6 324.57-2.8Q330.27-2.8 332.47-1.58 334.67-0.35 334.67 2.35 334.67 5.05 333.12 7.05 331.57 9.05 329.07 10.2L329.07 10.2Q324.12 12.4 318.47 12.4L318.47 12.4Q315.17 12.4 313.12 10.83 311.07 9.25 311.07 6.9L311.07 6.9Q311.07 1.4 315.77-0.2L315.77-0.2Q314.62-0.2 313.9-0.7 313.17-1.2 313.17-1.83 313.17-2.45 313.37-3.05 313.57-3.65 314.02-4.28 314.47-4.9 314.8-5.28 315.12-5.65 315.87-6.4L315.87-6.4 316.87-7.4Q314.17-9.8 314.17-13.93 314.17-18.05 317.27-21.08 320.37-24.1 324.07-24.1L324.07-24.1Q326.37-24.1 328.17-22.8L328.17-22.8Q330.27-25.2 335.17-25.2L335.17-25.2 334.67-20.9Q334.37-21.35 333.62-21.78 332.87-22.2 332.47-22.2L332.47-22.2Q331.12-22.2 329.67-21.3L329.67-21.3Q331.57-19.1 331.57-16L331.57-16Q331.57-12.1 328.57-9.05 325.57-6 321.77-6L321.77-6Q319.82-6 318.57-6.7L318.57-6.7Q316.47-4.2 316.47-3.6L316.47-3.6Q316.47-2.6 319.57-2.6ZM322.07-0.1L322.07-0.1 318.57-0.1Q317.02 0.85 316.52 1.35 316.02 1.85 315.67 2.3 315.32 2.75 315.07 3.2L315.07 3.2Q314.57 4.25 314.57 5.55 314.57 6.85 315.77 7.8L315.77 7.8Q317.82 9.3 321.5 9.3 325.17 9.3 328.32 8.05 331.47 6.8 331.47 4.6 331.47 2.4 328.92 1.15 326.37-0.1 322.07-0.1ZM317.37-15.68Q317.37-13 319.25-10.95 321.12-8.9 323.47-8.9 325.82-8.9 327.1-10.38 328.37-11.85 328.37-14.33 328.37-16.8 326.55-19 324.72-21.2 322.27-21.2 319.82-21.2 318.6-19.78 317.37-18.35 317.37-15.68ZM338.47 7.2L338.47 7.2 337.67 6.2Q340.42 4.1 341.07 0.7L341.07 0.7Q340.02 0.7 339.39 0.03 338.77-0.65 338.77-1.83 338.77-3 339.72-3.85 340.67-4.7 341.82-4.7 342.97-4.7 343.57-4.05 344.17-3.4 344.17-2.4L344.17-2.4Q344.17-0.1 342.94 2.13 341.72 4.35 340.64 5.38 339.57 6.4 338.47 7.2ZM393.46-1.4L393.46 0 380.66 0 380.66-1.4 382.26-1.4Q384.46-1.4 384.46-2.8L384.46-2.8Q384.46-3 383.96-4.5L383.96-4.5 380.56-13.4 367.96-13.4 364.66-4.9Q364.66-4.8 364.31-3.68 363.96-2.55 363.96-2.13 363.96-1.7 364.51-1.55 365.06-1.4 366.86-1.4L366.86-1.4 367.66-1.4 367.66 0 357.86 0 357.86-1.4 358.56-1.4Q360.21-1.4 360.96-1.98 361.71-2.55 362.26-3.9L362.26-3.9 373.26-32.6Q373.51-32.65 374.16-33.33 374.81-34 375.36-34.73 375.91-35.45 375.91-35.55 375.91-35.65 375.86-35.7L375.86-35.7 376.56-35.9 388.86-3.7Q389.41-2.55 389.99-1.98 390.56-1.4 391.66-1.4L391.66-1.4 393.46-1.4ZM368.76-15.5L379.66-15.5 374.26-29.8 368.76-15.5ZM421.46-1.4L421.46 0 412.86 0 412.86-1.4 413.06-1.4Q413.61-1.4 413.99-1.95 414.36-2.5 414.36-3.3L414.36-3.3 414.36-16Q414.36-18.25 413.29-19.43 412.21-20.6 410.26-20.6L410.26-20.6Q407.46-20.6 405.31-17.6 403.16-14.6 403.16-13.1L403.16-13.1 403.16-3.6Q403.16-2.8 403.24-2.45 403.31-2.1 403.81-1.75 404.31-1.4 405.36-1.4L405.36-1.4 406.26-1.4 406.26 0 396.16 0 396.16-1.4 396.96-1.4Q398.31-1.4 398.69-1.85 399.06-2.3 399.06-3.3L399.06-3.3 399.06-18.3Q399.06-19.25 398.44-19.68 397.81-20.1 396.16-20.1L396.16-20.1 396.16-21.5Q397.16-21.5 399.19-22.23 401.21-22.95 402.26-23.6L402.26-23.6 403.16-23.8 403.16-17.4Q404.31-20.55 406.71-22.28 409.11-24 412.56-24L412.56-24Q414.36-24 415.61-23.2 416.86-22.4 417.41-21.15L417.41-21.15Q418.36-19 418.36-16.9L418.36-16.9 418.36-3.4Q418.36-2.7 418.46-2.35L418.46-2.35Q418.71-1.4 420.56-1.4L420.56-1.4 421.46-1.4ZM422.56 11.6L422.56 11.6 423.36 7.7 424.06 7.7Q424.16 8.25 424.96 8.93 425.76 9.6 426.66 9.6L426.66 9.6Q429.76 9.6 431.06 7.5 432.36 5.4 433.76-0.1L433.76-0.1 426.16-19.8Q425.71-20.85 425.21-21.33 424.71-21.8 423.66-21.8L423.66-21.8 422.96-21.8 422.96-23.3 432.76-23.3 432.76-21.8 432.46-21.8Q430.36-21.8 430.36-20.6L430.36-20.6Q430.36-20.35 430.86-19L430.86-19 435.96-5.4 441.56-19.5Q442.16-20.7 442.16-21L442.16-21Q442.16-21.45 441.58-21.63 441.01-21.8 439.26-21.8L439.26-21.8 438.86-21.8 438.86-23.3 448.16-23.3 448.16-21.8 447.66-21.8Q445.96-21.8 445.31-21.3 444.66-20.8 444.16-19.4L444.16-19.4 434.06 5.9Q432.71 9.2 430.83 10.8 428.96 12.4 425.76 12.4L425.76 12.4Q424.56 12.4 422.56 11.6ZM464.56-3.1L464.56-3.1 464.96-1.9Q461.21 0.7 456.76 0.7L456.76 0.7Q455.16 0.7 454.01-0.45 452.86-1.6 452.86-3.5L452.86-3.5 452.86-21.2 449.96-21.2 449.96-23.3 451.06-23.3Q452.71-23.3 454.13-25.3 455.56-27.3 455.56-29L455.56-29 456.86-29 456.86-23.3 463.66-23.3 463.66-21.2 458.76-21.2Q456.86-21.2 456.86-19.4L456.86-19.4 456.86-5.1Q456.86-1.8 459.26-1.8L459.26-1.8Q461.96-1.8 464.56-3.1ZM471.98-34.8Q473.1-34.8 473.73-34.05 474.35-33.3 474.35-32.13 474.35-30.95 473.4-30.18 472.45-29.4 471.33-29.4 470.2-29.4 469.58-30.15 468.95-30.9 468.95-32.02 468.95-33.15 469.9-33.98 470.85-34.8 471.98-34.8ZM477.45-1.4L477.45 0 467.35 0 467.35-1.4 468.15-1.4Q469.5-1.4 469.88-1.85 470.25-2.3 470.25-3.3L470.25-3.3 470.25-18.3Q470.25-19.25 469.63-19.68 469-20.1 467.35-20.1L467.35-20.1 467.35-21.5Q468.35-21.5 470.38-22.23 472.4-22.95 473.45-23.6L473.45-23.6 474.35-23.8 474.35-3.6Q474.35-2.8 474.43-2.45 474.5-2.1 475-1.75 475.5-1.4 476.55-1.4L476.55-1.4 477.45-1.4ZM521.05-1.4L521.05 0 512.35 0 512.35-1.4 512.55-1.4Q513.1-1.4 513.48-1.95 513.85-2.5 513.85-3.3L513.85-3.3 513.85-16Q513.85-18 512.88-19.3 511.9-20.6 510.38-20.6 508.85-20.6 507.58-19.9 506.3-19.2 505.53-18.2 504.75-17.2 504.15-16.1L504.15-16.1Q503.15-14.15 503.15-13.2L503.15-13.2 503.15-3.4Q503.15-1.4 505.35-1.4L505.35-1.4 506.25-1.4 506.25 0 497.55 0 497.55-1.4 497.85-1.4Q498.3-1.4 498.68-1.95 499.05-2.5 499.05-3.3L499.05-3.3 499.05-16Q499.05-18 498.1-19.3 497.15-20.6 495.53-20.6 493.9-20.6 492.45-19.55 491-18.5 490.15-17.1L490.15-17.1Q488.45-14.25 488.45-13.1L488.45-13.1 488.45-3.6Q488.45-2.8 488.53-2.45 488.6-2.1 489.1-1.75 489.6-1.4 490.65-1.4L490.65-1.4 491.55-1.4 491.55 0 481.45 0 481.45-1.4 482.25-1.4Q483.6-1.4 483.98-1.85 484.35-2.3 484.35-3.3L484.35-3.3 484.35-18.3Q484.35-19.25 483.73-19.68 483.1-20.1 481.45-20.1L481.45-20.1 481.45-21.5Q482.45-21.5 484.48-22.23 486.5-22.95 487.55-23.6L487.55-23.6 488.45-23.8 488.45-17.4Q489.9-20.8 491.93-22.4 493.95-24 497.45-24L497.45-24Q499.05-24 500.25-23.33 501.45-22.65 502.05-21.55L502.05-21.55Q503.05-19.6 503.15-17.4L503.15-17.4Q504.3-20.75 506.4-22.38 508.5-24 512.05-24L512.05-24Q513.85-24 515.1-23.2 516.35-22.4 516.9-21.15L516.9-21.15Q517.85-19 517.85-16.9L517.85-16.9 517.85-3.4Q517.85-2.7 517.95-2.35L517.95-2.35Q518.2-1.4 520.05-1.4L520.05-1.4 521.05-1.4ZM544.05-6.1L544.05-6.1 544.95-5.2Q541.75 0.7 533.45 0.7L533.45 0.7Q529.6 0.7 526.87-2.7 524.15-6.1 524.15-10.3L524.15-10.3Q524.15-15.95 527.82-19.98 531.5-24 536.75-24L536.75-24Q539.25-24 541.15-22.55L541.15-22.55Q544.55-19.9 544.55-15.7L544.55-15.7Q544.55-15.1 544.32-14.25 544.1-13.4 543.95-13.4L543.95-13.4 527.85-12.9Q527.85-9 530.3-5.7 532.75-2.4 536.25-2.4L536.25-2.4Q538.75-2.4 540.87-3.43 543-4.45 544.05-6.1ZM528.35-14.9L528.35-14.9 540.05-15.4Q540.15-15.4 540.15-16.3L540.15-16.3Q540.15-18.9 538.62-20 537.1-21.1 534.42-21.1 531.75-21.1 530.05-19.45 528.35-17.8 528.35-14.9ZM589.84-6.9L588.14 0 561.34 0 561.34-1.4 563.04-1.4Q564.49-1.4 564.97-1.95 565.44-2.5 565.44-3.7L565.44-3.7 565.44-31.3Q565.44-32.3 564.82-32.95 564.19-33.6 563.04-33.6L563.04-33.6 561.34-33.6 561.34-35 587.74-35 588.14-28.1 586.74-27.8Q586.74-29.6 585.29-31.25 583.84-32.9 581.24-32.9L581.24-32.9 572.14-32.9Q570.64-32.9 570.19-32.33 569.74-31.75 569.74-30.7L569.74-30.7 569.74-19.3 579.74-19.3Q580.49-19.3 580.89-19.38 581.29-19.45 581.62-19.9 581.94-20.35 581.94-21.2L581.94-21.2 581.94-23.5 583.44-23.5 583.44-13.1 581.94-13.1 581.94-15.2Q581.94-16.45 581.39-16.82 580.84-17.2 579.74-17.2L579.74-17.2 569.74-17.2 569.74-4.3Q569.74-3.25 570.19-2.68 570.64-2.1 572.14-2.1L572.14-2.1 581.64-2.1Q584.29-2.1 586.32-3.8 588.34-5.5 588.44-7.1L588.44-7.1 589.84-6.9ZM617.34-1.4L617.34 0 607.54 0 607.54-1.4 608.04-1.4Q608.64-1.4 608.64-1.7 608.64-2 607.94-3.1L607.94-3.1 603.84-10.2 599.94-3.3Q599.24-2.2 599.24-1.8 599.24-1.4 600.44-1.4L600.44-1.4 601.24-1.4 601.24 0 591.84 0 591.84-1.4 593.24-1.4Q595.89-1.4 597.64-4.1L597.64-4.1 602.64-12.2 597.84-20Q596.64-21.9 594.04-21.9L594.04-21.9 593.34-21.9 593.34-23.3 603.04-23.3 603.04-21.9 602.54-21.9Q601.94-21.9 601.94-21.58 601.94-21.25 602.34-20.6L602.34-20.6 605.24-15.7 608.14-20.6Q608.24-20.8 608.34-21.03 608.44-21.25 608.49-21.35 608.54-21.45 608.54-21.5L608.54-21.5Q608.54-21.9 607.54-21.9L607.54-21.9 607.04-21.9 607.04-23.3 615.84-23.3 615.84-21.9 614.54-21.9Q611.89-21.9 611.04-20.6L611.04-20.6 606.44-13.7 612.24-3.8Q613.09-2.35 613.92-1.88 614.74-1.4 616.04-1.4L616.04-1.4 617.34-1.4ZM629.94 10.2L629.94 11.7 619.84 11.7 619.84 10.2 620.44 10.2Q621.54 10.2 622.06 9.85 622.59 9.5 622.66 9.15 622.74 8.8 622.74 8L622.74 8 622.74-17.9Q622.74-20.2 619.84-20.2L619.84-20.2 619.84-21.5Q620.79-21.5 622.84-22.28 624.89-23.05 625.84-23.7L625.84-23.7 626.74-23.8 626.74-17.5Q627.79-20.35 630.14-22.18 632.49-24 635.94-24 639.39-24 641.41-21.75 643.44-19.5 643.44-15.7L643.44-15.7Q643.44-8.65 639.74-3.98 636.04 0.7 630.74 0.7L630.74 0.7Q628.89 0.7 626.74-0.3L626.74-0.3 626.74 8.2Q626.74 8.9 626.84 9.25L626.84 9.25Q627.09 10.2 628.94 10.2L628.94 10.2 629.94 10.2ZM626.74-13.4L626.74-13.4 626.74-4.5Q626.94-4.2 627.34-3.7 627.74-3.2 629.01-2.4 630.29-1.6 631.64-1.6L631.64-1.6Q635.29-1.6 637.71-5.05 640.14-8.5 640.14-13.8L640.14-13.8Q640.14-16.75 638.31-18.68 636.49-20.6 633.76-20.6 631.04-20.6 628.89-17.57 626.74-14.55 626.74-13.4ZM668.58-1.4L668.58 0 661.38 0 661.38-4Q658.88-1.3 657.24-0.3 655.58 0.7 652.76 0.7 649.93 0.7 648.36-0.63 646.78-1.95 646.78-4.35 646.78-6.75 648.86-9.03 650.93-11.3 653.71-12.48 656.49-13.65 658.58-14.28 660.68-14.9 661.38-14.9L661.38-14.9 661.38-16Q661.38-20.7 657.49-20.7L657.49-20.7Q654.78-20.7 652.46-19.55 650.13-18.4 648.99-16.6L648.99-16.6 647.99-17.5Q651.33-24 659.58-24L659.58-24Q661.68-24 663.06-22.88 664.43-21.75 664.91-20.25 665.38-18.75 665.38-16.9L665.38-16.9 665.38-3.4Q665.38-2.75 665.49-2.4 665.58-2.05 666.11-1.73 666.63-1.4 667.68-1.4L667.68-1.4 668.58-1.4ZM661.38-6.8L661.38-6.8 661.38-12.9Q657.49-12.15 654.13-9.9 650.78-7.65 650.78-5L650.78-5Q650.78-3.95 651.81-3.18 652.83-2.4 654.36-2.4 655.88-2.4 657.99-3.78 660.08-5.15 661.38-6.8ZM697.78-1.4L697.78 0 689.18 0 689.18-1.4 689.38-1.4Q689.93-1.4 690.31-1.95 690.68-2.5 690.68-3.3L690.68-3.3 690.68-16Q690.68-18.25 689.61-19.43 688.53-20.6 686.58-20.6L686.58-20.6Q683.78-20.6 681.63-17.6 679.48-14.6 679.48-13.1L679.48-13.1 679.48-3.6Q679.48-2.8 679.56-2.45 679.63-2.1 680.13-1.75 680.63-1.4 681.68-1.4L681.68-1.4 682.58-1.4 682.58 0 672.48 0 672.48-1.4 673.28-1.4Q674.63-1.4 675.01-1.85 675.38-2.3 675.38-3.3L675.38-3.3 675.38-18.3Q675.38-19.25 674.76-19.68 674.13-20.1 672.48-20.1L672.48-20.1 672.48-21.5Q673.48-21.5 675.51-22.23 677.53-22.95 678.58-23.6L678.58-23.6 679.48-23.8 679.48-17.4Q680.63-20.55 683.03-22.28 685.43-24 688.88-24L688.88-24Q690.68-24 691.93-23.2 693.18-22.4 693.73-21.15L693.73-21.15Q694.68-19 694.68-16.9L694.68-16.9 694.68-3.4Q694.68-2.7 694.78-2.35L694.78-2.35Q695.03-1.4 696.88-1.4L696.88-1.4 697.78-1.4ZM724.88-1.6L724.88 0 717.68 0 717.68-5.8Q716.63-2.95 714.28-1.13 711.93 0.7 708.45 0.7 704.98 0.7 702.98-1.55 700.98-3.8 700.98-7.6L700.98-7.6Q700.98-14.65 704.65-19.33 708.33-24 713.68-24L713.68-24Q714.88-24 717.68-23L717.68-23 717.68-33Q717.68-33.95 717.03-34.38 716.38-34.8 714.78-34.8L714.78-34.8 714.78-36.2Q715.83-36.2 717.88-36.75 719.93-37.3 720.78-37.9L720.78-37.9 721.68-38.1 721.68-3.4Q721.68-2.45 722.05-2.02 722.43-1.6 723.88-1.6L723.88-1.6 724.88-1.6ZM717.68-9.9L717.68-9.9 717.68-18.8Q717.48-19.1 717.08-19.6 716.68-20.1 715.4-20.9 714.13-21.7 712.78-21.7L712.78-21.7Q709.13-21.7 706.7-18.25 704.28-14.8 704.28-9.5L704.28-9.5Q704.28-6.55 706.05-4.63 707.83-2.7 710.6-2.7 713.38-2.7 715.53-5.73 717.68-8.75 717.68-9.9ZM738.67 11.6L738.67 11.6 739.47 7.7 740.17 7.7Q740.27 8.25 741.07 8.93 741.87 9.6 742.77 9.6L742.77 9.6Q745.87 9.6 747.17 7.5 748.47 5.4 749.87-0.1L749.87-0.1 742.27-19.8Q741.82-20.85 741.32-21.33 740.82-21.8 739.77-21.8L739.77-21.8 739.07-21.8 739.07-23.3 748.87-23.3 748.87-21.8 748.57-21.8Q746.47-21.8 746.47-20.6L746.47-20.6Q746.47-20.35 746.97-19L746.97-19 752.07-5.4 757.67-19.5Q758.27-20.7 758.27-21L758.27-21Q758.27-21.45 757.7-21.63 757.12-21.8 755.37-21.8L755.37-21.8 754.97-21.8 754.97-23.3 764.27-23.3 764.27-21.8 763.77-21.8Q762.07-21.8 761.42-21.3 760.77-20.8 760.27-19.4L760.27-19.4 750.17 5.9Q748.82 9.2 746.95 10.8 745.07 12.4 741.87 12.4L741.87 12.4Q740.67 12.4 738.67 11.6ZM774.97 0.7L774.97 0.7Q770.57 0.7 767.62-2.6 764.67-5.9 764.67-10.3L764.67-10.3Q764.67-15.9 768.9-19.95 773.12-24 777.82-24 782.52-24 785.4-20.68 788.27-17.35 788.27-13L788.27-13Q788.27-7.55 784.25-3.43 780.22 0.7 774.97 0.7ZM768.17-13Q768.17-8.35 771-5.28 773.82-2.2 777.35-2.2 780.87-2.2 782.87-4.85 784.87-7.5 784.87-10.3L784.87-10.3Q784.87-14.55 782.25-17.73 779.62-20.9 775.87-20.9 772.12-20.9 770.15-18.38 768.17-15.85 768.17-13L768.17-13ZM816.47-1.4L816.47 0 809.27 0 809.27-5.9Q808.12-2.75 805.72-1.03 803.32 0.7 799.87 0.7L799.87 0.7Q798.07 0.7 796.82-0.1 795.57-0.9 795.02-2.15L795.02-2.15Q794.07-4.3 794.07-6.4L794.07-6.4 794.07-18.3Q794.07-20.6 791.17-20.6L791.17-20.6 791.17-22Q792.17-22 794.19-22.55 796.22-23.1 797.17-23.7L797.17-23.7 798.07-23.8 798.07-7.3Q798.07-5.05 799.14-3.88 800.22-2.7 802.17-2.7L802.17-2.7Q804.97-2.7 807.12-5.7 809.27-8.7 809.27-10.2L809.27-10.2 809.27-18.3Q809.27-20.6 806.37-20.6L806.37-20.6 806.37-22Q807.47-22 809.49-22.55 811.52-23.1 812.47-23.7L812.47-23.7 813.37-23.8 813.37-3.4Q813.37-2.7 813.47-2.35L813.47-2.35Q813.72-1.4 815.57-1.4L815.57-1.4 816.47-1.4ZM831.17-1.4L831.17 0 820.37 0 820.37-1.4 821.17-1.4Q822.52-1.4 822.89-1.85 823.27-2.3 823.27-3.3L823.27-3.3 823.27-18.3Q823.27-19.25 822.64-19.68 822.02-20.1 820.37-20.1L820.37-20.1 820.37-21.5Q821.37-21.5 823.39-22.23 825.42-22.95 826.47-23.6L826.47-23.6 827.37-23.8 827.37-17.6Q829.17-21.55 831.47-22.83 833.77-24.1 838.27-24.1L838.27-24.1 837.97-18.3 836.47-18.3Q836.47-19 835.94-19.65 835.42-20.3 834.27-20.3L834.27-20.3Q831.77-20.3 829.57-17.6 827.37-14.9 827.37-12.4L827.37-12.4 827.37-3.6Q827.37-2.8 827.44-2.45 827.52-2.1 828.02-1.75 828.52-1.4 829.57-1.4L829.57-1.4 831.17-1.4ZM878.76-1.4L878.76 0 872.56 0 861.76-13.3 859.76-11.6 859.76-3.6Q859.76-2.8 859.84-2.45 859.91-2.1 860.44-1.75 860.96-1.4 862.06-1.4L862.06-1.4 862.96-1.4 862.96 0 852.86 0 852.86-1.4 853.46-1.4Q854.56-1.4 855.09-1.75 855.61-2.1 855.69-2.45 855.76-2.8 855.76-3.6L855.76-3.6 855.76-33Q855.76-33.95 855.09-34.38 854.41-34.8 852.76-34.8L852.76-34.8 852.76-36.2Q853.86-36.2 855.94-36.75 858.01-37.3 858.96-37.9L858.96-37.9 859.76-38.1 859.76-14.5 867.26-20.5Q868.06-21.15 868.06-21.4L868.06-21.4Q868.06-21.8 866.86-21.8L866.86-21.8 866.46-21.8 866.46-23.3 874.86-23.3 874.86-21.8 874.36-21.8Q872.46-21.8 871.26-20.8L871.26-20.8 865.06-15.7 874.86-3.6Q876.51-1.4 877.66-1.4L877.66-1.4 878.76-1.4ZM905.36-1.4L905.36 0 896.76 0 896.76-1.4 896.96-1.4Q897.51-1.4 897.88-1.95 898.26-2.5 898.26-3.3L898.26-3.3 898.26-16Q898.26-18.25 897.18-19.43 896.11-20.6 894.16-20.6L894.16-20.6Q891.36-20.6 889.21-17.6 887.06-14.6 887.06-13.1L887.06-13.1 887.06-3.6Q887.06-2.8 887.13-2.45 887.21-2.1 887.71-1.75 888.21-1.4 889.26-1.4L889.26-1.4 890.16-1.4 890.16 0 880.06 0 880.06-1.4 880.86-1.4Q882.21-1.4 882.58-1.85 882.96-2.3 882.96-3.3L882.96-3.3 882.96-18.3Q882.96-19.25 882.33-19.68 881.71-20.1 880.06-20.1L880.06-20.1 880.06-21.5Q881.06-21.5 883.08-22.23 885.11-22.95 886.16-23.6L886.16-23.6 887.06-23.8 887.06-17.4Q888.21-20.55 890.61-22.28 893.01-24 896.46-24L896.46-24Q898.26-24 899.51-23.2 900.76-22.4 901.31-21.15L901.31-21.15Q902.26-19 902.26-16.9L902.26-16.9 902.26-3.4Q902.26-2.7 902.36-2.35L902.36-2.35Q902.61-1.4 904.46-1.4L904.46-1.4 905.36-1.4ZM918.86 0.7L918.86 0.7Q914.46 0.7 911.51-2.6 908.56-5.9 908.56-10.3L908.56-10.3Q908.56-15.9 912.78-19.95 917.01-24 921.71-24 926.41-24 929.28-20.68 932.16-17.35 932.16-13L932.16-13Q932.16-7.55 928.13-3.43 924.11 0.7 918.86 0.7ZM912.06-13Q912.06-8.35 914.88-5.28 917.71-2.2 921.23-2.2 924.76-2.2 926.76-4.85 928.76-7.5 928.76-10.3L928.76-10.3Q928.76-14.55 926.13-17.73 923.51-20.9 919.76-20.9 916.01-20.9 914.03-18.38 912.06-15.85 912.06-13L912.06-13ZM956.75 0.5L956.75 0.5 955.85 0.7 950.85-13.9 946.95-2.5Q946.45-2.35 945.4-1.05 944.35 0.25 944.35 0.5L944.35 0.5 943.45 0.7 936.35-19.6Q935.9-20.75 935.38-21.28 934.85-21.8 933.75-21.8L933.75-21.8 933.05-21.8 933.05-23.3 942.45-23.3 942.35-21.8Q940.35-21.8 940.35-20.6L940.35-20.6Q940.35-20.2 940.75-19L940.75-19 945.55-5.4 949.65-17.3 948.75-19.6Q947.9-21.8 946.55-21.8L946.55-21.8 946.55-23.3 955.45-23.3 955.45-21.8 955.05-21.8Q952.85-21.8 952.85-20.6L952.85-20.6Q952.85-20.4 953.15-19.5L953.15-19.5 957.95-5.4 962.85-19.7Q963.25-20.65 963.25-21.08 963.25-21.5 962.73-21.65 962.2-21.8 960.35-21.8L960.35-21.8 959.75-21.8 959.75-23.3 969.15-23.3 969.15-21.8 968.65-21.8Q967-21.8 966.35-21.3 965.7-20.8 965.25-19.4L965.25-19.4 959.45-2.5Q959-2.5 957.88-1.13 956.75 0.25 956.75 0.5ZM981.15-1.4L981.15 0 971.15 0 971.15-1.4 971.85-1.4Q972.95-1.4 973.45-1.88 973.95-2.35 973.95-3.5L973.95-3.5 973.95-33Q973.95-33.95 973.3-34.38 972.65-34.8 971.05-34.8L971.05-34.8 971.05-36.2Q972.05-36.2 974.13-36.75 976.2-37.3 977.15-37.9L977.15-37.9 978.05-38.1 978.05-3.6Q978.05-2.8 978.13-2.45 978.2-2.1 978.7-1.75 979.2-1.4 980.25-1.4L980.25-1.4 981.15-1.4Z" opacity="1" transform="matrix(1,0,0,1,0,0)" fill="#8d021f" class="slogan-text-1" data-fill-palette-color="secondary" id="text-1"></path></svg></g></svg></g></svg></g></svg></g></svg></g></svg></g><g mask="url(#7bf6837d-6dc8-4e6f-81c7-9345a8ee309e)"><g transform="matrix(2.5068241555390856, 0, 0, 2.5068241555390856, 102.89425723054228, 0.9999999999999858)"><svg xmlns="http://www.w3.org/2000/svg" xmlns:xlink="http://www.w3.org/1999/xlink" version="1.1" x="0" y="0" viewBox="12.982999801635742 1 75.68599700927734 97.81300354003906" enable-background="new 0 0 100 100" xml:space="preserve" height="97.81300354003906" width="75.68599700927734" class="icon-none" data-fill-palette-color="accent" id="none"><g fill="#8d021f" data-fill-palette-color="accent"><polygon fill-rule="evenodd" clip-rule="evenodd" points="12.983,10.59 30.001,98.813 24.129,39.764 53.15,37.872 53.096,27.989    64.549,1 53.622,18.977  " fill="#8d021f" data-fill-palette-color="accent"></polygon><polygon fill-rule="evenodd" clip-rule="evenodd" points="59.389,54.548 64.549,1.007 55.809,40.723 36.197,41.768 37.767,62.23    30.001,98.813 42.058,58.914  " fill="#8d021f" data-fill-palette-color="accent"></polygon><polygon fill-rule="evenodd" clip-rule="evenodd" points="62.8,67.182 63.349,56.729 47.37,60.484 47.338,72.281 30.001,98.813    51.681,71.197  " fill="#8d021f" data-fill-palette-color="accent"></polygon><polygon fill-rule="evenodd" clip-rule="evenodd" points="65.711,62.394 80.552,57.663 82.061,45.131 66.162,47.226  " fill="#8d021f" data-fill-palette-color="accent"></polygon><polygon fill-rule="evenodd" clip-rule="evenodd" points="72.07,44.502 83.058,43.085 84.639,32.807 76.56,32.434 64.549,1    72.979,31.967  " fill="#8d021f" data-fill-palette-color="accent"></polygon><polygon fill-rule="evenodd" clip-rule="evenodd" points="87.413,31.294 88.669,21.788 79.125,19.094 64.549,1 79.032,23.437    78.61,30.437  " fill="#8d021f" data-fill-palette-color="accent"></polygon></g></svg></g></g></svg></g><defs></defs></svg><rect width="395.52" height="247.2" fill="none" stroke="none" visibility="hidden"></rect></g></svg></g></svg>